<svg xmlns="http://www.w3.org/2000/svg" data-name="Слой 1" viewBox="0 0 128 160" x="0px" y="0px"><title>medical, app, phone, doctor, Health App</title><path d="M88,0H40A10,10,0,0,0,30,10V118a10,10,0,0,0,10,10H88a10,10,0,0,0,10-10V10A10,10,0,0,0,88,0ZM40,4H88a6,6,0,0,1,6,6v6H34V10A6,6,0,0,1,40,4ZM34,20H94v88H34ZM88,124H40a6,6,0,0,1-6-6v-6H94v6A6,6,0,0,1,88,124Z"/><path d="M57.5,12h13a2,2,0,0,0,0-4h-13a2,2,0,0,0,0,4Z"/><circle cx="64" cy="118" r="2"/><path d="M67.17,32.82H66V31.65a2,2,0,1,0-4,0v1.17H60.83a2,2,0,0,0,0,4H62V38a2,2,0,0,0,4,0V36.82h1.17a2,2,0,0,0,0-4Z"/><path d="M73.33,71a17.66,17.66,0,0,0,8.35-15V33.22a9.14,9.14,0,0,0-9.12-9.13H55.45a9.14,9.14,0,0,0-9.12,9.13V56a17.66,17.66,0,0,0,8.35,15,34.12,34.12,0,0,0-24.74,32.75,2,2,0,1,0,4,0A30.12,30.12,0,0,1,53.67,75.52l8.72,11.9a2,2,0,0,0,3.23,0l8.72-11.9a30.12,30.12,0,0,1,19.73,28.23,2,2,0,0,0,4,0A34.12,34.12,0,0,0,73.33,71Zm4.35-22.92a28.91,28.91,0,0,1-11.76-2.89H77.68ZM50.32,33.22a5.13,5.13,0,0,1,5.13-5.13h17.1a5.13,5.13,0,0,1,5.13,5.13v8H50.32Zm0,22.8V45.19h8.76c1.85,1.85,7.46,6.33,18.59,6.89V56a13.68,13.68,0,0,1-27.35,0ZM64,82.86l-6.24-8.51a30,30,0,0,1,12.47,0Z"/><path d="M57.43,103.46a2,2,0,0,1-2-2v-9.6a4.89,4.89,0,1,0-9.77,0v9.6a2,2,0,1,1-4,0v-9.6a8.89,8.89,0,1,1,17.77,0v9.6A2,2,0,0,1,57.43,103.46Z"/><path d="M45.33,105.76a3.67,3.67,0,0,1-3.67-3.67,2,2,0,0,1,4-.31,2,2,0,0,1-.31,4Zm.33-3.67h0Z"/><path d="M55.76,105.76a2,2,0,0,1-.31-4,2,2,0,0,1,4,.31A3.67,3.67,0,0,1,55.76,105.76Z"/><path d="M50.34,87h-.18a2,2,0,0,1-1.82-2.17c.08-.89.82-8.78,2.81-12.15a2,2,0,1,1,3.44,2c-1.16,2-2,7.45-2.27,10.46A2,2,0,0,1,50.34,87Z"/><path d="M79,90a2,2,0,0,1-2-1.85c0-.09-.68-8.71-3.62-13.44a2,2,0,1,1,3.39-2.11C80.3,78.19,81,87.49,81,87.88A2,2,0,0,1,79.2,90Z"/><path d="M79.05,99.59a6.78,6.78,0,1,1,6.79-6.78A6.79,6.79,0,0,1,79.05,99.59Zm0-9.57a2.78,2.78,0,1,0,2.79,2.79A2.79,2.79,0,0,0,79.05,90Z"/><text x="0" y="143" fill="#000000" font-size="5px" font-weight="bold" font-family="'Helvetica Neue', Helvetica, Arial-Unicode, Arial, Sans-serif">Created by LAFS</text><text x="0" y="148" fill="#000000" font-size="5px" font-weight="bold" font-family="'Helvetica Neue', Helvetica, Arial-Unicode, Arial, Sans-serif">from the Noun Project</text></svg>